<?xml version="1.0" encoding="utf-8"?>
<!-- Generator: Adobe Illustrator 26.3.1, SVG Export Plug-In . SVG Version: 6.00 Build 0)  -->
<svg version="1.1" id="Capa_1" xmlns="http://www.w3.org/2000/svg" xmlns:xlink="http://www.w3.org/1999/xlink" x="0px" y="0px"
	 viewBox="0 0 300 300" style="enable-background:new 0 0 300 300;" xml:space="preserve">
<style type="text/css">
	.st0{fill:#FFFFFF;}
</style>
<g>
	<path class="st0" d="M149,23C78.9,23,22,79.9,22,150s56.9,127,127,127s127-56.9,127-127S219.1,23,149,23z M149,259
		c-60.2,0-109-48.8-109-109S88.8,41,149,41s109,48.8,109,109S209.2,259,149,259z"/>
</g>
<path class="st0" d="M84.2,194.5c-5.4,0-10.3-1-14.7-2.9c-4.4-1.9-7.9-4.7-10.4-8.3c-2.5-3.6-3.7-8-3.6-13.2l0.1-0.4H71
	c0,2.4,0.5,4.6,1.6,6.5c1.1,1.9,2.6,3.3,4.5,4.4c2,1.1,4.3,1.6,7,1.6c4.2,0,7.4-1.2,9.8-3.5c2.4-2.3,3.6-5.6,3.6-9.8
	c0-4.3-1.2-7.6-3.5-9.9c-2.3-2.3-5.9-3.4-10.6-3.4H74v-12.1h9.8c2.9,0,5.2-0.5,7.1-1.5c1.8-1,3.2-2.4,4.1-4.3c0.9-1.8,1.3-4,1.3-6.6
	c0-3.9-1-7-3.1-9.2c-2.1-2.2-5.1-3.3-9-3.3c-2.4,0-4.5,0.5-6.3,1.4c-1.8,1-3.3,2.3-4.3,4c-1,1.7-1.6,3.7-1.6,6H56.5l-0.1-0.4
	c-0.1-4.5,1-8.5,3.3-12c2.3-3.6,5.6-6.4,9.8-8.4c4.2-2,9.1-3.1,14.5-3.1c8.6,0,15.4,2.1,20.6,6.3c5.1,4.2,7.7,10.2,7.7,18
	c0,3.9-1.1,7.5-3.3,10.8c-2.2,3.3-5.5,5.9-9.9,7.9c4.8,1.7,8.5,4.3,10.9,7.8c2.4,3.5,3.6,7.6,3.6,12.2c0,5.2-1.3,9.7-3.8,13.5
	c-2.5,3.8-6,6.7-10.5,8.7C94.9,193.5,89.9,194.5,84.2,194.5z"/>
<path class="st0" d="M150.9,194.5c-5.9,0-11.2-1.4-15.7-4.1c-4.6-2.7-8.1-6.7-10.7-11.9c-2.6-5.2-3.9-11.5-3.9-18.8v-14.3
	c0-8.3,1.4-15.4,4.3-21.2c2.9-5.8,6.9-10.2,12-13.3c5.1-3.1,11-4.6,17.6-4.6c3.1,0,6.1,0.3,8.9,0.9c2.8,0.6,5.4,1.5,8,2.7l-2.8,11.7
	c-2.1-0.8-4.2-1.4-6.5-2c-2.3-0.5-4.6-0.8-7.2-0.8c-5.7,0-10.1,2-13.2,5.9c-3,3.9-4.6,9.7-4.7,17.3l0.2,0.3c2-2,4.4-3.6,7.5-4.7
	c3-1.2,6.3-1.7,9.9-1.7c5.1,0,9.6,1.2,13.3,3.7c3.7,2.5,6.6,5.9,8.5,10.2c2,4.3,3,9.3,3,14.8c0,5.8-1.2,11-3.6,15.5
	c-2.4,4.5-5.7,8-10,10.6C161.5,193.3,156.5,194.5,150.9,194.5z M150.6,182.2c2.6,0,4.9-0.8,6.8-2.4c1.9-1.6,3.3-3.7,4.4-6.4
	c1-2.7,1.6-5.7,1.6-9c0-4.8-1.2-8.8-3.6-11.8c-2.4-3.1-5.7-4.6-10.1-4.6c-1.9,0-3.7,0.3-5.4,0.8c-1.7,0.5-3.2,1.2-4.5,2.2
	s-2.4,2.1-3.2,3.4v6c0,7,1.3,12.4,3.9,16.2C143.1,180.3,146.5,182.2,150.6,182.2z"/>
<path class="st0" d="M214.6,194.5c-8.8,0-15.8-2.9-21-8.8s-7.7-14.4-7.7-25.7v-19.3c0-11.2,2.6-19.8,7.7-25.7
	c5.1-5.9,12.1-8.8,20.9-8.8s15.8,2.9,20.9,8.8c5.2,5.9,7.7,14.5,7.7,25.7v19.3c0,11.3-2.6,19.8-7.7,25.7S223.4,194.5,214.6,194.5z
	 M214.6,182.2c4.1,0,7.3-1.6,9.4-4.9s3.2-8.4,3.2-15.5v-22.9c0-7-1.1-12.1-3.3-15.3c-2.2-3.3-5.3-4.9-9.5-4.9
	c-4.1,0-7.3,1.6-9.4,4.9c-2.2,3.3-3.2,8.4-3.2,15.3v22.9c0,7,1.1,12.2,3.3,15.5S210.4,182.2,214.6,182.2z"/>
<path class="st0" d="M264.6,140c-3.3,0-6.3-0.8-9-2.3c-2.7-1.6-4.8-3.7-6.4-6.4c-1.6-2.7-2.4-5.7-2.4-9c0-3.3,0.8-6.3,2.4-9
	c1.6-2.7,3.8-4.9,6.4-6.5c2.7-1.6,5.7-2.4,8.9-2.4c3.2,0,6.1,0.8,8.7,2.4c2.6,1.6,4.8,3.8,6.3,6.5c1.6,2.7,2.4,5.7,2.4,9
	c0,3.3-0.8,6.3-2.3,9c-1.6,2.7-3.7,4.8-6.3,6.4C270.7,139.2,267.8,140,264.6,140z"/>
<path d="M264.6,130.5c2.3,0,4.2-0.8,5.8-2.3c1.5-1.6,2.3-3.5,2.3-5.9c0-2.4-0.8-4.4-2.3-6c-1.6-1.6-3.5-2.4-5.7-2.4
	c-2.3,0-4.3,0.8-5.9,2.4c-1.6,1.6-2.4,3.6-2.4,6c0,2.4,0.8,4.4,2.4,5.9C260.3,129.8,262.3,130.5,264.6,130.5z"/>
</svg>
